<?xml version="1.0" encoding="utf-8"?>
<svg width="716px" height="406px" viewBox="0 0 716 406" version="1.1" xmlns:xlink="http://www.w3.org/1999/xlink" xmlns="http://www.w3.org/2000/svg">
  <defs>
    <path d="M0 0L716 0L716 406L0 406L0 0Z" id="path_1" />
    <clipPath id="clip_1">
      <use xlink:href="#path_1" />
    </clipPath>
  </defs>
  <g id="Marco" clip-path="url(#clip_1)">
    <path d="M0 0L716 0L716 406L0 406L0 0Z" id="Marco" fill="#FFFFFF" fill-opacity="0" fill-rule="evenodd" stroke="none" />
    <g id="Financy" fill="#FFFFFF" transform="translate(33 92)">
      <path d="M118.32 63.475Q116.79 63.475 115.77 62.455Q114.75 61.435 114.75 59.905L114.75 41.375Q114.75 39.845 115.77 38.825Q116.79 37.805 118.32 37.805L129.88 37.805Q131.41 37.805 132.43 38.825Q133.45 39.845 133.45 41.375L133.45 59.905Q133.45 61.435 132.43 62.455Q131.41 63.475 129.88 63.475L118.32 63.475ZM16.83 172.275C15.81 172.275 14.96 171.935 14.28 171.255Q13.26 170.235 13.26 168.705L13.26 58.035Q13.26 54.975 15.385 52.85Q17.51 50.725 20.57 50.725L78.54 50.725Q80.07 50.725 81.09 51.745Q82.11 52.765 82.11 54.295L82.11 67.045Q82.11 68.575 81.09 69.595Q80.07 70.615 78.54 70.615L34 70.615L34 102.405L67.15 102.405Q68.68 102.405 69.7 103.425Q70.72 104.445 70.72 105.975L70.72 118.045Q70.72 119.575 69.7 120.595Q68.68 121.615 67.15 121.615L34 121.615L34 168.705Q34 170.235 32.98 171.255C32.3 171.935 31.45 172.275 30.43 172.275L16.83 172.275ZM171.36 171.255C172.04 171.935 172.89 172.275 173.91 172.275L187.17 172.275C188.19 172.275 189.04 171.935 189.72 171.255Q190.74 170.235 190.74 168.705L190.74 116.685Q190.74 105.295 196.605 98.75Q202.47 92.205 212.5 92.205Q220.83 92.205 225.42 97.05Q230.01 101.895 230.01 110.905L230.01 168.705Q230.01 170.235 231.03 171.255C231.71 171.935 232.56 172.275 233.58 172.275L246.84 172.275C247.86 172.275 248.71 171.935 249.39 171.255Q250.41 170.235 250.41 168.705L250.41 108.355Q250.41 98.155 245.99 89.995Q241.57 81.835 233.835 77.245Q226.1 72.655 216.41 72.655Q208.59 72.655 202.045 76.31Q195.5 79.965 190.74 86.425L190.74 78.435Q190.74 76.905 189.72 75.885Q188.7 74.865 187.17 74.865L173.91 74.865Q172.38 74.865 171.36 75.885Q170.34 76.905 170.34 78.435L170.34 168.705Q170.34 170.235 171.36 171.255ZM300.9 174.485Q286.62 174.485 277.695 166.41Q268.77 158.335 268.77 145.415Q268.77 133.685 276.93 125.95Q285.09 118.215 299.88 115.835Q303.62 115.495 307.02 114.815Q318.92 113.455 321.47 112.775Q327.76 111.755 327.76 105.635Q327.76 99.345 322.575 95.52Q317.39 91.695 309.57 91.695Q295.8 91.695 289.51 101.725Q288.15 103.935 286.28 103.935Q284.92 103.935 284.07 103.255L274.55 96.795Q273.02 95.775 273.02 93.905Q273.02 93.395 273.36 92.375Q278.29 83.025 287.98 77.84Q297.67 72.655 309.91 72.655Q321.13 72.655 329.63 76.905Q338.13 81.155 342.805 88.975Q347.48 96.795 347.48 106.995L347.48 168.705Q347.48 170.235 346.46 171.255C345.78 171.935 344.93 172.275 343.91 172.275L332.35 172.275C331.33 172.275 330.48 171.963 329.8 171.34Q328.78 170.405 328.78 168.705L328.78 162.075Q317.05 174.485 300.9 174.485ZM374 171.255C374.68 171.935 375.53 172.275 376.55 172.275L389.81 172.275C390.83 172.275 391.68 171.935 392.36 171.255Q393.38 170.235 393.38 168.705L393.38 116.685Q393.38 105.295 399.245 98.75Q405.11 92.205 415.14 92.205Q423.47 92.205 428.06 97.05Q432.65 101.895 432.65 110.905L432.65 168.705Q432.65 170.235 433.67 171.255C434.35 171.935 435.2 172.275 436.22 172.275L449.48 172.275C450.5 172.275 451.35 171.935 452.03 171.255Q453.05 170.235 453.05 168.705L453.05 108.355Q453.05 98.155 448.63 89.995Q444.21 81.835 436.475 77.245Q428.74 72.655 419.05 72.655Q411.23 72.655 404.685 76.31Q398.14 79.965 393.38 86.425L393.38 78.435Q393.38 76.905 392.36 75.885Q391.34 74.865 389.81 74.865L376.55 74.865Q375.02 74.865 374 75.885Q372.98 76.905 372.98 78.435L372.98 168.705Q372.98 170.235 374 171.255ZM514.76 174.485Q503.71 174.485 494.445 169.045Q485.18 163.605 479.74 154.255Q474.3 144.905 474.3 133.855L474.3 113.285Q474.3 102.235 479.74 92.885Q485.18 83.535 494.445 78.095Q503.71 72.655 514.76 72.655Q523.26 72.655 531.08 76.14Q538.9 79.625 544.51 85.915Q545.7 87.105 545.7 88.635Q545.7 90.505 544.17 92.035L536.86 99.345Q535.67 100.535 534.14 100.535Q532.61 100.535 531.25 99.005Q524.62 92.375 514.76 92.375Q506.43 92.375 500.565 98.24Q494.7 104.105 494.7 112.435L494.7 134.705Q494.7 143.035 500.565 148.9Q506.43 154.765 514.76 154.765Q524.62 154.765 531.25 148.135Q532.61 146.605 534.14 146.605Q535.67 146.605 536.86 147.795L544.17 155.105Q545.7 156.635 545.7 158.505Q545.7 160.035 544.51 161.225Q538.9 167.515 531.08 171Q523.26 174.485 514.76 174.485ZM122.4 172.275C120.02 172.275 118.008 171.453 116.365 169.81Q113.9 167.345 113.9 163.775L113.9 94.245L100.13 94.245Q98.6 94.245 97.58 93.225Q96.56 92.205 96.56 90.675L96.56 78.435Q96.56 76.905 97.58 75.885Q98.6 74.865 100.13 74.865L125.8 74.865Q129.37 74.865 131.835 77.33Q134.3 79.795 134.3 83.365L134.3 152.895L148.07 152.895Q149.6 152.895 150.62 153.915Q151.64 154.935 151.64 156.465L151.64 168.705Q151.64 170.235 150.62 171.255C149.94 171.935 149.09 172.275 148.07 172.275L122.4 172.275ZM583.1 203.64Q584.12 205.085 585.99 205.085L597.21 205.085Q599.08 205.085 600.44 204.065Q601.8 203.045 602.48 201.345L645.15 80.305Q645.49 79.285 645.49 78.775Q645.49 77.075 644.3 75.97Q643.11 74.865 641.24 74.865L630.19 74.865Q628.49 74.865 627.045 75.885Q625.6 76.905 625.09 78.605L602.14 146.435L579.19 78.605Q578.68 76.905 577.235 75.885Q575.79 74.865 574.09 74.865L562.19 74.865Q560.32 74.865 559.13 75.97Q557.94 77.075 557.94 78.775Q557.94 79.285 558.28 80.305L591.6 175.165L582.76 200.325Q582.08 202.195 583.1 203.64ZM302.43 156.295Q309.06 156.295 315.01 152.895Q320.96 149.495 324.615 143.97Q328.27 138.445 328.27 132.325L328.27 128.925L315.52 130.795Q305.15 131.985 302.09 132.665Q288.15 135.215 288.15 144.735Q288.15 150.005 292.06 153.15Q295.97 156.295 302.43 156.295Z" />
    </g>
  </g>
</svg>